Coordinates
version=1
nRows=30
nColumns=23
inDegrees=yes

Units are S.I. units (second, meters, Newtons, ...)
If the header above contains a line with 'inDegrees', this indicates whether rotational values are in degrees (yes) or radians (no).

endheader
time	pelvis_tilt	pelvis_list	pelvis_rotation	pelvis_tx	pelvis_ty	pelvis_tz	hip_flexion_r	hip_adduction_r	hip_rotation_r	knee_angle_r	knee_angle_r_beta	ankle_angle_r	subtalar_angle_r	mtp_angle_r	hip_flexion_l	hip_adduction_l	hip_rotation_l	knee_angle_l	knee_angle_l_beta	ankle_angle_l	subtalar_angle_l	mtp_angle_l
      0.00000000	      4.01080513	      7.90661148	      0.68041553	      2.22274819	      0.97948238	      0.97699284	     15.88769865	    -11.21634622	      0.77542216	     78.34623212	      1.36739971	     12.49180186	    -25.93930180	      0.00000000	     10.44784081	     11.90910301	      2.43780630	     46.85162673	      0.81771515	     27.10897955	     -5.53060378	      0.00000000
      0.00666667	      3.93927200	      7.47378907	      0.68188371	      2.22155262	      0.98175123	      0.97757013	     17.22690364	    -10.59508762	      1.08065654	     77.56035525	      1.35368357	     13.09880804	    -25.49233167	      0.00000000	      8.90726370	     11.43394751	      2.80944714	     45.80873780	      0.79951330	     27.22243425	     -5.34358458	      0.00000000
      0.01333333	      3.87071040	      7.02908637	      0.68399526	      2.22048616	      0.98399280	      0.97812646	     18.47509197	     -9.96438876	      1.34381997	     76.66399684	      1.33803916	     13.73028729	    -24.98132268	      0.00000000	      7.34468511	     10.94236951	      3.17800062	     44.70089560	      0.78017781	     27.30190389	     -5.11948613	      0.00000000
      0.02000000	      3.55881901	      6.60170225	      0.77583395	      2.21943367	      0.98600045	      0.97858362	     19.92076689	     -9.33938934	      1.57267615	     75.68058362	      1.32087536	     14.18707030	    -24.55623298	      0.00000000	      6.06106548	     10.50078523	      3.66568446	     43.59335190	      0.76084752	     27.30087102	     -4.85060341	      0.00000000
      0.02666667	      3.77874155	      6.03641601	      0.68984943	      2.21877960	      0.98892479	      0.97926789	     20.62679963	     -8.58746540	      1.70603643	     74.41035013	      1.29870561	     14.81291135	    -23.91307172	      0.00000000	      4.11652224	      9.80791401	      3.88440857	     42.28550565	      0.73802130	     27.13524906	     -4.60398578	      0.00000000
      0.03333333	      3.74493526	      5.51580388	      0.69158140	      2.21822349	      0.99176448	      0.97984001	     21.53863251	     -7.90578702	      1.77081380	     73.01892006	      1.27442057	     15.23475219	    -23.31435642	      0.00000000	      2.45112030	      9.19371922	      4.20567175	     40.94882260	      0.71469178	     26.83486804	     -4.29570528	      0.00000000
      0.04000000	      3.26812534	      5.04849395	      0.71110551	      2.21770446	      0.99428052	      0.98039251	     22.89959990	     -7.25581427	      1.88588090	     71.52352370	      1.24832098	     15.54768371	    -22.67459366	      0.00000000	      1.33522308	      8.66841099	      4.55596394	     39.69318905	      0.69277684	     26.35951412	     -3.99006610	      0.00000000
      0.04666667	      3.44933425	      4.33526137	      0.52066207	      2.21762774	      0.99797812	      0.98130312	     23.36329396	     -6.32063110	      1.90172032	     69.68522477	      1.21623661	     15.74815345	    -22.16519601	      0.00000000	     -0.59573334	      7.72321499	      4.41081280	     38.18486997	      0.66645171	     25.45637372	     -3.65153925	      0.00000000
      0.05333333	      3.38996502	      3.73726747	      0.38446453	      2.21763703	      1.00159323	      0.98215016	     24.02051867	     -5.52987591	      1.90001731	     67.71378001	      1.18182841	     15.83682175	    -21.63084110	      0.00000000	     -2.23305614	      6.96370620	      4.40233714	     36.71351442	      0.64077171	     24.55472698	     -3.17605352	      0.00000000
      0.06000000	      3.24738228	      3.13581878	      0.19483478	      2.21777159	      1.00532543	      0.98307606	     24.68834285	     -4.73778066	      1.87568371	     65.56436147	      1.14431398	     15.86309711	    -21.00618087	      0.00000000	     -3.75682120	      6.19032678	      4.24455359	     35.23210042	      0.61491615	     23.30547359	     -2.74527987	      0.00000000
      0.06666667	      3.05089371	      2.51926763	     -0.07533091	      2.21805988	      1.00915390	      0.98416688	     25.32962084	     -3.91025742	      1.85459755	     63.24654051	      1.10386037	     15.81903398	    -20.32266125	      0.00000000	     -5.19095985	      5.37892076	      3.86522186	     33.75862513	      0.58919916	     21.78415817	     -2.31262955	      0.00000000
      0.07333333	      2.79641894	      1.91101873	     -0.39662198	      2.21847720	      1.01304305	      0.98532387	     25.94360889	     -3.09311650	      1.80835007	     60.76202955	      1.06049748	     15.74003360	    -19.51695849	      0.00000000	     -6.53106805	      4.58221420	      3.34394705	     32.30439390	      0.56381804	     20.02477934	     -1.89086099	      0.00000000
      0.08000000	      2.36732660	      1.33218229	     -0.74935886	      2.21892388	      1.01672565	      0.98653089	     26.68672941	     -2.32784644	      1.69042799	     58.16774244	      1.01521862	     15.56636734	    -18.57307561	      0.00000000	     -7.58884492	      3.81894415	      2.67549616	     30.98678160	      0.54082136	     17.96276465	     -1.47998857	      0.00000000
      0.08666667	      2.21075132	      0.73279853	     -1.10260314	      2.21956477	      1.02092017	      0.98767449	     26.98161041	     -1.58434213	      1.46329095	     55.34803831	      0.96600550	     15.45976449	    -17.43284943	      0.00000000	     -8.97325345	      3.06769922	      2.01046361	     29.57699263	      0.51621590	     15.89294024	     -1.04361691	      0.00000000
      0.09333333	      1.86764137	      0.16195552	     -1.47288595	      2.22021822	      1.02481816	      0.98884439	     27.41554634	     -0.88423314	      1.15767342	     52.44100366	      0.91526818	     15.29466415	    -16.09290052	      0.00000000	    -10.04612168	      2.34865147	      1.21926244	     28.33820960	      0.49459506	     13.58068887	     -0.64831158	      0.00000000
      0.10000000	      1.54064256	     -0.39350187	     -1.81894671	      2.22099458	      1.02869690	      0.98993922	     27.73371024	     -0.26663208	      0.67072596	     49.42489992	      0.86262724	     15.12794015	    -14.47546638	      0.00000000	    -11.07753770	      1.65923453	      0.39394557	     27.18024960	      0.47438485	     11.15503531	     -0.25746882	      0.00000000
      0.10666667	      1.19373466	     -0.94189913	     -2.17242442	      2.22175449	      1.03245994	      0.99106532	     27.98671052	      0.36891317	      0.15461784	     46.32378876	      0.80850264	     14.97700787	    -12.62718723	      0.00000000	    -11.97222365	      0.98710006	     -0.48463029	     26.20373893	      0.45734152	      8.63102432	      0.07329645	      0.00000000
      0.11333333	      0.56789459	     -1.38304033	     -2.52841715	      2.22244744	      1.03569704	      0.99219038	     28.50408447	      0.95163223	     -0.28237549	     43.21689416	      0.75427710	     14.63540869	    -10.94945615	      0.00000000	    -12.40209931	      0.41123932	     -1.43208594	     25.49701715	      0.44500690	      6.01105432	      0.35423964	      0.00000000
      0.12000000	      0.24679708	     -1.88646514	     -2.83102166	      2.22325981	      1.03922867	      0.99330005	     28.56391692	      1.58087278	     -0.82795325	     40.02894933	      0.69863696	     14.44259265	     -8.85464268	      0.00000000	    -13.12346203	     -0.20850207	     -2.30158564	     24.84435368	      0.43361577	      3.44171170	      0.63111772	      0.00000000
      0.12666667	      0.30216086	     -2.48208218	     -3.02660404	      2.22437041	      1.04305227	      0.99417792	     28.10378703	      2.12806974	     -1.85872929	     36.84422596	      0.64305305	     14.47813398	     -5.84517338	      0.00000000	    -14.23738646	     -0.89518105	     -3.06436025	     24.21214213	      0.42258160	      0.85262977	      0.89227196	      0.00000000
      0.13333333	      0.02715283	     -2.87805518	     -3.23926081	      2.22535110	      1.04615241	      0.99514984	     28.03560191	      2.59972265	     -2.61601890	     33.84840427	      0.59076610	     14.39253004	     -3.07793045	      0.00000000	    -14.78505397	     -1.40113025	     -3.80352393	     23.92501094	      0.41757021	     -1.72573444	      1.02756809	      0.00000000
      0.14000000	     -0.19937760	     -3.28803931	     -3.44708153	      2.22626540	      1.04904660	      0.99618693	     27.84232185	      3.22873019	     -3.00608413	     30.88649812	      0.53907109	     14.21137921	     -0.76848168	      0.00000000	    -15.24075380	     -1.93240654	     -4.52846881	     23.89577551	      0.41705996	     -4.18083698	      1.09664890	      0.00000000
      0.14666667	     -0.39449241	     -3.63598411	     -3.61899499	      2.22720470	      1.05164894	      0.99718880	     27.61189634	      3.80894582	     -3.30843107	     28.12788876	      0.49092427	     14.07274935	      1.53542797	      0.00000000	    -15.60510410	     -2.40707135	     -5.14789538	     24.07921033	      0.42026150	     -6.52686105	      1.08442449	      0.00000000
      0.15333333	     -0.54673641	     -3.94515619	     -3.75217723	      2.22813426	      1.05395239	      0.99813502	     27.31357306	      4.40115113	     -3.33974176	     25.55308724	      0.44598551	     13.89309954	      3.45082103	      0.00000000	    -15.87165356	     -2.84778351	     -5.64743449	     24.50766174	      0.42773939	     -8.70999882	      0.99060540	      0.00000000
      0.16000000	     -0.72985846	     -4.18746801	     -3.86196912	      2.22900382	      1.05580467	      0.99903652	     27.07239097	      4.94726999	     -3.16208193	     23.26040061	      0.40597058	     13.73775877	      4.99701213	      0.00000000	    -15.93969347	     -3.23880659	     -6.03490851	     25.22497812	      0.44025892	    -10.67252157	      0.76119884	      0.00000000
      0.16666667	     -0.76134939	     -4.41642169	     -3.89430029	      2.22987971	      1.05742829	      0.99981148	     26.69273314	      5.41852450	     -3.01876529	     21.28808850	      0.37154724	     13.63772245	      6.45368805	      0.00000000	    -16.05971594	     -3.59822208	     -6.19537021	     26.11380689	      0.45577191	    -12.44258206	      0.44104117	      0.00000000
      0.17333333	     -0.88843541	     -4.56054707	     -3.93062942	      2.23065414	      1.05842546	      1.00055569	     26.50698544	      5.80181027	     -2.75732124	     19.74609513	      0.34463437	     13.58525776	      7.51545413	      0.00000000	    -15.90136894	     -3.88836864	     -6.26877720	     27.30746546	      0.47660518	    -13.92548233	      0.01373015	      0.00000000
      0.18000000	     -0.91449857	     -4.71501062	     -3.88771246	      2.23141440	      1.05907733	      1.00115704	     26.24918848	      6.12591074	     -2.58582041	     18.55653604	      0.32387265	     13.59418522	      8.33776517	      0.00000000	    -15.73316702	     -4.18221431	     -6.15317811	     28.68912413	      0.50071968	    -15.13175275	     -0.53253764	      0.00000000
      0.18666667	     -0.87359289	     -4.85568834	     -3.78452824	      2.23211677	      1.05931360	      1.00164270	     25.99298649	      6.37064239	     -2.52628007	     17.77881517	      0.31029886	     13.63529472	      8.90412115	      0.00000000	    -15.51540982	     -4.43728597	     -5.82621137	     30.25698492	      0.52808401	    -16.03829910	     -1.23971541	      0.00000000
      0.19333333	     -0.81043185	     -5.01269751	     -3.67480389	      2.23277104	      1.05903739	      1.00208731	     25.79354360	      6.60252399	     -2.50155497	     17.43030836	      0.30421627	     13.73597438	      9.21213932	      0.00000000	    -15.21440033	     -4.69201729	     -5.41740758	     32.01253986	      0.55872422	    -16.64029354	     -2.00531028	      0.00000000
